<?xml version="1.0" encoding="UTF-8"?>
<svg xmlns="http://www.w3.org/2000/svg" viewBox="0 0 1000 1000" width="1000" height="1000">
  <!-- QUANT PRIME LOGO - For Blender 3D Extrusion -->
  
  <!-- OUTER RING -->
  <circle cx="500" cy="500" r="420" fill="none" stroke="#c9a84c" stroke-width="18"/>
  
  <!-- Q SHAPE - Main body (silver) -->
  <path id="q-body" d="
    M 340 295
    C 340 250, 375 220, 420 220
    L 580 220
    C 625 220, 660 250, 660 295
    L 660 505
    C 660 550, 625 580, 580 580
    L 540 580
    L 620 700
    L 540 700
    L 460 580
    L 420 580
    C 375 580, 340 550, 340 505
    Z
  " fill="#d8d8dc"/>
  
  <!-- Q SHAPE - Inner cutout -->
  <path id="q-cutout" d="
    M 390 295
    C 390 270, 410 250, 435 250
    L 565 250
    C 590 250, 610 270, 610 295
    L 610 490
    C 610 515, 590 535, 565 535
    L 435 535
    C 410 535, 390 515, 390 490
    Z
  " fill="#0a0a0a"/>
  
  <!-- ARROW/CHEVRON (gold) -->
  <path id="arrow" d="
    M 500 310
    L 565 395
    L 530 395
    L 530 470
    L 470 470
    L 470 395
    L 435 395
    Z
  " fill="#c9a84c"/>
  
  <!-- PRIME TEXT -->
  <!-- P -->
  <path d="M 308 730 L 308 810 L 322 810 L 322 780 L 345 780 C 365 780, 375 765, 375 750 C 375 735, 365 720, 345 720 L 308 720 Z M 322 735 L 342 735 C 355 735, 360 742, 360 750 C 360 758, 355 765, 342 765 L 322 765 Z" fill="#c9a84c"/>
  
  <!-- R -->
  <path d="M 395 720 L 395 810 L 409 810 L 409 775 L 430 775 L 455 810 L 473 810 L 445 772 C 460 767, 468 755, 468 742 C 468 725, 455 720, 435 720 Z M 409 735 L 432 735 C 448 735, 453 742, 453 750 C 453 758, 448 765, 432 765 L 409 765 Z" fill="#c9a84c"/>
  
  <!-- I -->
  <path d="M 490 720 L 490 810 L 505 810 L 505 720 Z" fill="#c9a84c"/>
  
  <!-- M -->
  <path d="M 530 720 L 530 810 L 544 810 L 544 745 L 570 790 L 580 790 L 606 745 L 606 810 L 620 810 L 620 720 L 604 720 L 575 770 L 546 720 Z" fill="#c9a84c"/>
  
  <!-- E -->
  <path d="M 645 720 L 645 810 L 700 810 L 700 795 L 660 795 L 660 772 L 695 772 L 695 758 L 660 758 L 660 735 L 700 735 L 700 720 Z" fill="#c9a84c"/>
  
  <!-- Left dash -->
  <rect x="255" y="762" width="40" height="4" fill="#c9a84c"/>
  
  <!-- Right dash -->
  <rect x="715" y="762" width="40" height="4" fill="#c9a84c"/>
  
</svg>
